<svg width="30" height="30" viewBox="0 0 30 30" fill="none" xmlns="http://www.w3.org/2000/svg">
<path d="M6.66662 6.83325H20V8.16659H6.66662V6.83325ZM6.66662 13.4999H13.405V14.8333H6.66662V13.4999ZM19.4816 10.1666H6.66662V11.4999H18.1491L19.4816 10.1666ZM10.6616 24.2266C10.8857 24.4835 11.17 24.6807 11.4892 24.8006C11.8083 24.9204 12.1522 24.9591 12.49 24.9133H18.9933C19.148 24.9133 19.2964 24.8518 19.4058 24.7424C19.5152 24.633 19.5766 24.4846 19.5766 24.3299C19.5766 24.1752 19.5152 24.0268 19.4058 23.9174C19.2964 23.808 19.148 23.7466 18.9933 23.7466H12.49C11.7308 23.7333 11.8658 23.0741 11.9725 22.8699C12.1112 22.6301 12.2196 22.374 12.295 22.1074C12.3452 21.8928 12.322 21.6676 12.2289 21.4678C12.1358 21.268 11.9783 21.1053 11.7816 21.0058C11.4661 20.8638 11.1128 20.829 10.7757 20.9068C10.4386 20.9846 10.1363 21.1707 9.91496 21.4366C9.62829 21.7324 9.22996 22.1849 8.84829 22.6249C9.08412 21.7008 9.38996 20.5149 9.68996 19.3583C9.77593 19.0947 9.75881 18.8084 9.64206 18.5569C9.52531 18.3055 9.31761 18.1076 9.06079 18.0033C8.77638 17.9057 8.46555 17.9196 8.19102 18.0423C7.91649 18.1649 7.6987 18.3871 7.58162 18.6641C7.22162 19.3566 4.37162 24.1324 4.34329 24.1808C4.304 24.2465 4.27806 24.3194 4.26693 24.3952C4.2558 24.471 4.25971 24.5482 4.27844 24.6225C4.31626 24.7725 4.41213 24.9014 4.54496 24.9808C4.67779 25.0601 4.8367 25.0834 4.98672 25.0456C5.13675 25.0078 5.26561 24.9119 5.34496 24.7791C5.45162 24.5999 7.72662 20.7891 8.44412 19.5166C7.90412 21.5999 7.30912 23.9183 7.27412 24.1266C7.23487 24.2798 7.24676 24.4416 7.30799 24.5873C7.36922 24.7331 7.47644 24.8549 7.61329 24.9341C7.76583 25.0097 7.93922 25.0325 8.10611 24.9987C8.27299 24.9649 8.42387 24.8765 8.53496 24.7474C8.63996 24.6524 8.83662 24.4266 9.33246 23.8508C9.79441 23.3074 10.2676 22.7737 10.7516 22.2499C10.9333 22.0583 11.0433 22.1433 10.9366 22.3316C10.7279 22.5952 10.5925 22.9093 10.5442 23.2421C10.4959 23.5749 10.5364 23.9145 10.6616 24.2266Z" fill="white"/>
<path d="M23.3332 18.0792V26.6667H3.33317V3.33341H23.3332V7.49425L24.4415 6.38591C24.6121 6.21762 24.7991 6.06687 24.9998 5.93591V2.50008C24.9998 2.27907 24.912 2.06711 24.7558 1.91083C24.5995 1.75455 24.3875 1.66675 24.1665 1.66675H2.49984C2.27882 1.66675 2.06686 1.75455 1.91058 1.91083C1.7543 2.06711 1.6665 2.27907 1.6665 2.50008V27.5001C1.6665 27.7211 1.7543 27.9331 1.91058 28.0893C2.06686 28.2456 2.27882 28.3334 2.49984 28.3334H24.1665C24.3875 28.3334 24.5995 28.2456 24.7558 28.0893C24.912 27.9331 24.9998 27.7211 24.9998 27.5001V17.8559C24.4889 18.1275 23.8975 18.2067 23.3332 18.0792Z" fill="white"/>
<path d="M28.4401 9.88415L28.0043 9.44832C28.2267 9.15383 28.3393 8.79088 28.3226 8.4222C28.3058 8.05352 28.1608 7.70227 27.9126 7.42915C27.5901 7.14485 27.1682 6.99951 26.739 7.0248C26.3098 7.05008 25.9079 7.24394 25.621 7.56415L15.1835 18L14.486 20.6183C14.4749 20.6526 14.4736 20.6892 14.4821 20.7242C14.4906 20.7592 14.5086 20.7911 14.5341 20.8165C14.5597 20.8418 14.5917 20.8596 14.6268 20.8679C14.6618 20.8762 14.6984 20.8746 14.7326 20.8633L17.3418 20.1575L27.0851 10.4141L27.4968 10.8266C27.5256 10.8553 27.5485 10.8894 27.5642 10.9269C27.5798 10.9645 27.5878 11.0047 27.5878 11.0454C27.5878 11.0861 27.5798 11.1263 27.5642 11.1639C27.5485 11.2014 27.5256 11.2355 27.4968 11.2641L23.3993 15.3616C23.2743 15.4867 23.2041 15.6564 23.2042 15.8332C23.2043 16.01 23.2746 16.1796 23.3997 16.3046C23.5248 16.4296 23.6944 16.4997 23.8713 16.4996C24.0481 16.4996 24.2176 16.4292 24.3426 16.3042L28.4401 12.2066C28.5928 12.0542 28.714 11.8731 28.7966 11.6738C28.8793 11.4744 28.9218 11.2608 28.9218 11.045C28.9218 10.8292 28.8793 10.6155 28.7966 10.4162C28.714 10.2169 28.5928 10.0358 28.4401 9.88332" fill="white"/>
</svg>
