<svg width="20" height="21" viewBox="0 0 20 21" fill="none" xmlns="http://www.w3.org/2000/svg">
<path d="M3.9206 0.500977C1.76502 0.500977 0.0012207 2.26478 0.0012207 4.42036V16.5841C0.0012207 18.7397 1.76502 20.5035 3.9206 20.5035H16.0844C18.2399 20.5035 20.0037 18.7397 20.0037 16.5841V4.42036C20.0037 2.26478 18.2399 0.500977 16.0844 0.500977H3.9206ZM6.16436 5.0141H10.11C10.9294 5.0141 11.5519 5.04408 11.9744 5.10848C12.3969 5.16966 12.7937 5.3008 13.1625 5.50036C13.5615 5.71534 13.8613 6.00484 14.0587 6.36348C14.2561 6.72424 14.3562 7.1389 14.3562 7.61036C14.3562 8.15524 14.2203 8.63958 13.9462 9.06474C13.6748 9.4899 13.2983 9.80254 12.8194 10.0047V10.0629C13.5084 10.2092 14.0611 10.5036 14.4756 10.9516C14.8908 11.4002 15.0981 12.004 15.0981 12.7622C15.0981 13.3172 14.9933 13.8068 14.7831 14.2266C14.573 14.6465 14.2916 14.9924 13.9356 15.2691C13.5158 15.599 13.055 15.8319 12.55 15.9729C12.0482 16.1134 11.4108 16.1835 10.635 16.1835H6.16438V5.01412L6.16436 5.0141ZM8.95498 7.0616V9.42536H9.3081C9.787 9.42536 10.1254 9.42044 10.3175 9.41036C10.5096 9.40028 10.7095 9.34882 10.9144 9.2541C11.1368 9.14928 11.2934 9.00374 11.3775 8.8191C11.4621 8.63232 11.5056 8.41664 11.5056 8.17348C11.5056 7.99204 11.4594 7.80728 11.3668 7.61786C11.2748 7.42842 11.1318 7.28996 10.9343 7.20536C10.7502 7.12342 10.5325 7.08022 10.2787 7.07224C10.0254 7.06424 9.64908 7.06162 9.14996 7.06162L8.95498 7.0616ZM8.95498 11.3385V14.1347H9.10624C9.8363 14.1347 10.3405 14.1292 10.6194 14.1191C10.8982 14.109 11.1854 14.0428 11.4744 13.9172C11.7308 13.8071 11.915 13.6457 12.0331 13.4329C12.1507 13.2205 12.2094 12.9797 12.2094 12.711C12.2094 12.3651 12.141 12.0964 12 11.9016C11.8595 11.7047 11.6494 11.5585 11.37 11.4585C11.2008 11.392 10.965 11.3559 10.6681 11.3485C10.3712 11.341 9.97214 11.3385 9.4725 11.3385H8.95498Z" fill="black"/>
</svg>
