<svg width="180" height="180" viewBox="0 0 180 180" fill="none" xmlns="http://www.w3.org/2000/svg">
<rect width="180" height="180" fill="white"/>
<path d="M89.272 57.544C98.5733 57.544 106.424 58.184 112.824 59.464C119.224 60.6587 124.387 62.7067 128.312 65.608C132.237 68.5093 135.053 72.4347 136.76 77.384C138.552 82.248 139.448 88.3493 139.448 95.688C139.448 102.856 138.552 108.829 136.76 113.608C135.053 118.387 132.237 122.184 128.312 125C124.387 127.816 119.224 129.864 112.824 131.144C106.424 132.339 98.5733 132.936 89.272 132.936C80.056 132.936 72.2053 132.339 65.72 131.144C59.32 129.864 54.1573 127.816 50.232 125C46.392 122.184 43.576 118.387 41.784 113.608C40.0773 108.829 39.224 102.856 39.224 95.688C39.224 88.3493 40.0773 82.248 41.784 77.384C43.576 72.4347 46.392 68.5093 50.232 65.608C54.1573 62.7067 59.32 60.6587 65.72 59.464C72.2053 58.184 80.056 57.544 89.272 57.544ZM89.272 72.008C83.128 72.008 78.0933 72.3493 74.168 73.032C70.2427 73.6293 67.1707 74.824 64.952 76.616C62.7333 78.3227 61.1547 80.7547 60.216 83.912C59.3627 86.984 58.936 90.9093 58.936 95.688C58.936 100.381 59.3627 104.221 60.216 107.208C61.1547 110.195 62.7333 112.541 64.952 114.248C67.1707 115.869 70.2427 117.021 74.168 117.704C78.0933 118.301 83.128 118.6 89.272 118.6C95.416 118.6 100.451 118.301 104.376 117.704C108.301 117.021 111.373 115.869 113.592 114.248C115.896 112.541 117.475 110.195 118.328 107.208C119.267 104.221 119.736 100.381 119.736 95.688C119.736 90.9093 119.267 86.984 118.328 83.912C117.475 80.7547 115.896 78.3227 113.592 76.616C111.373 74.824 108.301 73.6293 104.376 73.032C100.451 72.3493 95.416 72.008 89.272 72.008ZM99.128 46.28V64.84L98.232 68.552V122.056L99.128 126.408V144.2H79.544V126.408L80.44 122.056V68.552L79.544 64.84V46.28H99.128Z" fill="#212529"/>
</svg>
