<svg xmlns="http://www.w3.org/2000/svg" xmlns:xlink="http://www.w3.org/1999/xlink"><symbol id="advantage-icon-1" viewBox="0 0 25 25"><g fill="none">
<path d="M10.9375 12.9609L8.91406 10.9375L7.8125 12.0391L10.9375 15.1641L17.1875 8.91406L16.0859 7.8125L10.9375 12.9609Z" fill="white"/>
<path d="M12.5 23.4375L7.67501 20.8648C6.29937 20.1332 5.14899 19.0407 4.34738 17.7046C3.54576 16.3685 3.12318 14.8394 3.12501 13.2812V3.125C3.12501 2.7106 3.28963 2.31317 3.58265 2.02015C3.87568 1.72712 4.27311 1.5625 4.68751 1.5625H20.3125C20.7269 1.5625 21.1243 1.72712 21.4174 2.02015C21.7104 2.31317 21.875 2.7106 21.875 3.125V13.2812C21.8768 14.8394 21.4543 16.3685 20.6526 17.7046C19.851 19.0407 18.7006 20.1332 17.325 20.8648L12.5 23.4375ZM4.68751 3.125V13.2812C4.68664 14.556 5.03272 15.807 5.68866 16.9C6.3446 17.9931 7.28566 18.887 8.41094 19.4859L12.5 21.6664L16.5891 19.4867C17.7145 18.8877 18.6556 17.9937 19.3116 16.9005C19.9675 15.8073 20.3135 14.5561 20.3125 13.2812V3.125H4.68751Z" fill="white"/>
</g></symbol><symbol id="advantage-icon-2" viewBox="0 0 25 25"><g fill="none">
<path d="M12.5 0.833305L12.8733 0.0883054C12.7575 0.0302363 12.6296 0 12.5 0C12.3704 0 12.2425 0.0302363 12.1267 0.0883054L12.5 0.833305ZM7.5 14.1666V13.3333H6.66667V14.1666H7.5ZM14.1667 14.1666H15V13.3333H14.1667V14.1666ZM0 25H25V23.3333H0V25ZM12.1267 0.0883054L2.12667 5.0883L2.87333 6.5783L12.8733 1.57831L12.1267 0.0883054ZM0 9.99997H25V8.3333H0V9.99997ZM22.8733 5.0883L12.8733 0.0883054L12.1267 1.57831L22.1267 6.5783L22.8733 5.0883ZM1.66667 9.16664V24.1666H3.33333V9.16664H1.66667ZM21.6667 9.16664V24.1666H23.3333V9.16664H21.6667ZM8.33333 24.1666V14.1666H6.66667V24.1666H8.33333ZM7.5 15H14.1667V13.3333H7.5V15ZM13.3333 14.1666V24.1666H15V14.1666H13.3333Z" fill="white"/>
</g></symbol><symbol id="advantage-icon-3" viewBox="0 0 30 30"><g fill="none">
<path d="M17.9284 17.5086L19.2587 17.6483V28.4766L15.5842 24.5528V18.3105L16.6514 18.8317L17.9284 17.5086ZM12.0719 17.5086L10.7409 17.6483V28.4766L14.4154 24.5528V18.3105L13.3482 18.8317L12.0719 17.5086ZM22.1489 10.7246L22.5794 12.2231L21.2871 13.0944L21.1789 14.6513L19.6666 15.0278L19.0336 16.4524L17.4832 16.2887L16.4007 17.407L15.0002 16.7228L13.5996 17.407L12.5171 16.285L10.9667 16.4487L10.3338 15.0241L8.82145 14.6513L8.71322 13.0966L7.41725 12.2224L7.84779 10.7239L6.93408 9.4616L7.85072 8.20066L7.41725 6.70518L8.71029 5.83389L8.81852 4.2791L10.3338 3.90633L10.9667 2.48174L12.5171 2.64545L13.5996 1.52344L15.0002 2.20764L16.4007 1.52344L17.4832 2.64545L19.0336 2.48174L19.6666 3.90633L21.1789 4.28279L21.2871 5.83752L22.5794 6.70881L22.1489 8.20728L23.0662 9.4616L22.1489 10.7246ZM19.2653 9.4616C19.2653 8.62441 19.017 7.80601 18.5519 7.10991C18.0868 6.41381 17.4257 5.87126 16.6522 5.55088C15.8787 5.2305 15.0276 5.14668 14.2065 5.31001C13.3854 5.47333 12.6312 5.87648 12.0392 6.46847C11.4472 7.06045 11.0441 7.81469 10.8807 8.6358C10.7174 9.45691 10.8012 10.308 11.1216 11.0815C11.442 11.8549 11.9845 12.516 12.6806 12.9812C13.3767 13.4463 14.1951 13.6945 15.0323 13.6945C16.1544 13.6928 17.2301 13.2463 18.0235 12.4528C18.817 11.6594 19.2635 10.5837 19.2653 9.4616ZM15.0323 6.39814C14.4264 6.39814 13.8342 6.57781 13.3304 6.91442C12.8266 7.25102 12.434 7.72946 12.2021 8.28922C11.9703 8.84898 11.9096 9.46492 12.0278 10.0592C12.146 10.6534 12.4377 11.1992 12.8662 11.6277C13.2946 12.0561 13.8404 12.3479 14.4346 12.4661C15.0289 12.5843 15.6448 12.5236 16.2046 12.2918C16.7644 12.0599 17.2428 11.6673 17.5794 11.1635C17.916 10.6598 18.0957 10.0675 18.0957 9.4616C18.0934 8.65005 17.7698 7.87244 17.1958 7.29878C16.6217 6.72513 15.8439 6.40212 15.0323 6.40037V6.39814Z" fill="white"/>
</g></symbol><symbol id="advantage-icon-4" viewBox="0 0 123 106"><g fill="none">
<path d="M17.9516 8.75765L17.951 8.75856L3.96582 33.0283C2.80309 35.0468 2.3422 37.3149 2.62208 39.548C2.90214 41.7825 3.91626 43.917 5.56927 45.6698L5.56963 45.6702L59.1846 102.549L17.9516 8.75765ZM17.9516 8.75765C19.0187 6.90356 20.6424 5.32341 22.6692 4.21011M17.9516 8.75765L22.6692 4.21011M105.056 8.75856L105.055 8.75765C103.988 6.90356 102.364 5.32341 100.338 4.21011C98.3099 3.09637 95.9692 2.50024 93.5717 2.5L105.056 8.75856ZM105.056 8.75856L119.041 33.0286L119.041 33.0289M105.056 8.75856L119.041 33.0289M119.041 33.0289C120.205 35.047 120.667 37.3149 120.388 39.5479M119.041 33.0289L120.388 39.5479M22.6692 4.21011C24.6968 3.09637 27.0375 2.50024 29.435 2.5L22.6692 4.21011ZM120.388 39.5479C120.109 41.7823 119.096 43.917 117.444 45.6702M120.388 39.5479L117.444 45.6702M117.444 45.6702C117.444 45.6702 117.444 45.6703 117.443 45.6704M117.444 45.6702L117.443 45.6704M117.443 45.6704L63.8287 102.549L117.443 45.6704ZM62.8154 103.239C63.2185 103.071 63.5613 102.832 63.8276 102.55L62.8154 103.239ZM62.8154 103.239C62.4115 103.407 61.9644 103.497 61.5067 103.497M62.8154 103.239L61.5067 103.497M61.5067 103.497C61.0489 103.497 60.6018 103.407 60.1979 103.239M61.5067 103.497L60.1979 103.239M60.1979 103.239C59.7948 103.071 59.452 102.832 59.1858 102.55L60.1979 103.239ZM27.5077 7.75027L24.7948 8.45515L26.3438 10.7912L40.1768 31.6532L41.8435 34.1669L43.5104 31.6534L57.4693 10.6054L59.5288 7.5H55.8025H29.435V7.49996L29.4223 7.50004C28.7761 7.50414 28.1322 7.58802 27.5077 7.75027ZM48.9615 33.6728L46.9028 36.778H50.6284H72.3783H76.1051L74.0449 33.6724L63.1666 17.2744L61.4995 14.7613L59.8331 17.2748L48.9615 33.6728ZM84.8797 41.778H83.431L82.9794 43.1544L70.1467 82.2624L73.5024 84.2578L110.364 45.1498L113.542 41.778H108.909H84.8797ZM49.5043 84.2578L52.8601 82.2627L40.0341 43.1547L39.5825 41.778H38.1337H14.0982H9.46465L12.6428 45.1498L49.5043 84.2578ZM48.4952 41.778H45.7337L46.5949 44.4017L59.6064 84.0437L61.5071 89.8347L63.407 84.0434L76.4119 44.4014L77.2725 41.778H74.5115H48.4952ZM103.029 16.6796L101.416 13.8792L99.6297 16.5725L88.2877 33.6725L86.2279 36.778H89.9544H111.148H114.608L112.881 33.7796L103.029 16.6796ZM93.5754 7.5H93.565H67.1975H63.4713L65.5308 10.6054L79.4896 31.6534L81.1562 34.1663L82.823 31.6536L96.6627 10.7916L98.2126 8.45525L95.4989 7.75026C94.8716 7.58727 94.2246 7.5034 93.5754 7.5ZM33.0523 36.778H36.7788L34.719 33.6725L23.377 16.5725L21.5906 13.8792L19.9773 16.6796L10.1259 33.7796L8.39854 36.778H11.8589H33.0523ZM29.4352 2.5H93.5715H29.4352Z" stroke="white" stroke-width="4"/>
</g></symbol><symbol id="advantage-icon-5" viewBox="0 0 30 30"><g fill="none">
<path d="M6.66662 6.83325H20V8.16659H6.66662V6.83325ZM6.66662 13.4999H13.405V14.8333H6.66662V13.4999ZM19.4816 10.1666H6.66662V11.4999H18.1491L19.4816 10.1666ZM10.6616 24.2266C10.8857 24.4835 11.17 24.6807 11.4892 24.8006C11.8083 24.9204 12.1522 24.9591 12.49 24.9133H18.9933C19.148 24.9133 19.2964 24.8518 19.4058 24.7424C19.5152 24.633 19.5766 24.4846 19.5766 24.3299C19.5766 24.1752 19.5152 24.0268 19.4058 23.9174C19.2964 23.808 19.148 23.7466 18.9933 23.7466H12.49C11.7308 23.7333 11.8658 23.0741 11.9725 22.8699C12.1112 22.6301 12.2196 22.374 12.295 22.1074C12.3452 21.8928 12.322 21.6676 12.2289 21.4678C12.1358 21.268 11.9783 21.1053 11.7816 21.0058C11.4661 20.8638 11.1128 20.829 10.7757 20.9068C10.4386 20.9846 10.1363 21.1707 9.91496 21.4366C9.62829 21.7324 9.22996 22.1849 8.84829 22.6249C9.08412 21.7008 9.38996 20.5149 9.68996 19.3583C9.77593 19.0947 9.75881 18.8084 9.64206 18.5569C9.52531 18.3055 9.31761 18.1076 9.06079 18.0033C8.77638 17.9057 8.46555 17.9196 8.19102 18.0423C7.91649 18.1649 7.6987 18.3871 7.58162 18.6641C7.22162 19.3566 4.37162 24.1324 4.34329 24.1808C4.304 24.2465 4.27806 24.3194 4.26693 24.3952C4.2558 24.471 4.25971 24.5482 4.27844 24.6225C4.31626 24.7725 4.41213 24.9014 4.54496 24.9808C4.67779 25.0601 4.8367 25.0834 4.98672 25.0456C5.13675 25.0078 5.26561 24.9119 5.34496 24.7791C5.45162 24.5999 7.72662 20.7891 8.44412 19.5166C7.90412 21.5999 7.30912 23.9183 7.27412 24.1266C7.23487 24.2798 7.24676 24.4416 7.30799 24.5873C7.36922 24.7331 7.47644 24.8549 7.61329 24.9341C7.76583 25.0097 7.93922 25.0325 8.10611 24.9987C8.27299 24.9649 8.42387 24.8765 8.53496 24.7474C8.63996 24.6524 8.83662 24.4266 9.33246 23.8508C9.79441 23.3074 10.2676 22.7737 10.7516 22.2499C10.9333 22.0583 11.0433 22.1433 10.9366 22.3316C10.7279 22.5952 10.5925 22.9093 10.5442 23.2421C10.4959 23.5749 10.5364 23.9145 10.6616 24.2266Z" fill="white"/>
<path d="M23.3332 18.0792V26.6667H3.33317V3.33341H23.3332V7.49425L24.4415 6.38591C24.6121 6.21762 24.7991 6.06687 24.9998 5.93591V2.50008C24.9998 2.27907 24.912 2.06711 24.7558 1.91083C24.5995 1.75455 24.3875 1.66675 24.1665 1.66675H2.49984C2.27882 1.66675 2.06686 1.75455 1.91058 1.91083C1.7543 2.06711 1.6665 2.27907 1.6665 2.50008V27.5001C1.6665 27.7211 1.7543 27.9331 1.91058 28.0893C2.06686 28.2456 2.27882 28.3334 2.49984 28.3334H24.1665C24.3875 28.3334 24.5995 28.2456 24.7558 28.0893C24.912 27.9331 24.9998 27.7211 24.9998 27.5001V17.8559C24.4889 18.1275 23.8975 18.2067 23.3332 18.0792Z" fill="white"/>
<path d="M28.4401 9.88415L28.0043 9.44832C28.2267 9.15383 28.3393 8.79088 28.3226 8.4222C28.3058 8.05352 28.1608 7.70227 27.9126 7.42915C27.5901 7.14485 27.1682 6.99951 26.739 7.0248C26.3098 7.05008 25.9079 7.24394 25.621 7.56415L15.1835 18L14.486 20.6183C14.4749 20.6526 14.4736 20.6892 14.4821 20.7242C14.4906 20.7592 14.5086 20.7911 14.5341 20.8165C14.5597 20.8418 14.5917 20.8596 14.6268 20.8679C14.6618 20.8762 14.6984 20.8746 14.7326 20.8633L17.3418 20.1575L27.0851 10.4141L27.4968 10.8266C27.5256 10.8553 27.5485 10.8894 27.5642 10.9269C27.5798 10.9645 27.5878 11.0047 27.5878 11.0454C27.5878 11.0861 27.5798 11.1263 27.5642 11.1639C27.5485 11.2014 27.5256 11.2355 27.4968 11.2641L23.3993 15.3616C23.2743 15.4867 23.2041 15.6564 23.2042 15.8332C23.2043 16.01 23.2746 16.1796 23.3997 16.3046C23.5248 16.4296 23.6944 16.4997 23.8713 16.4996C24.0481 16.4996 24.2176 16.4292 24.3426 16.3042L28.4401 12.2066C28.5928 12.0542 28.714 11.8731 28.7966 11.6738C28.8793 11.4744 28.9218 11.2608 28.9218 11.045C28.9218 10.8292 28.8793 10.6155 28.7966 10.4162C28.714 10.2169 28.5928 10.0358 28.4401 9.88332" fill="white"/>
</g></symbol><symbol id="arrow-next" viewBox="0 0 36 15">
<path d="M35.7143 8.20711C36.1048 7.81658 36.1048 7.18342 35.7143 6.79289L29.3503 0.428932C28.9598 0.0384078 28.3267 0.0384078 27.9361 0.428932C27.5456 0.819457 27.5456 1.45262 27.9361 1.84315L33.593 7.5L27.9361 13.1569C27.5456 13.5474 27.5456 14.1805 27.9361 14.5711C28.3267 14.9616 28.9598 14.9616 29.3503 14.5711L35.7143 8.20711ZM-0.00708008 8.5H35.0072V6.5H-0.00708008L-0.00708008 8.5Z"/>
</symbol><symbol id="arrow-prev" viewBox="0 0 37 16">
<path d="M0.29277 8.70711C-0.0977516 8.31658 -0.0977516 7.68342 0.29277 7.29289L6.65673 0.928932C7.04726 0.538408 7.68042 0.538408 8.07095 0.928932C8.46147 1.31946 8.46147 1.95262 8.07095 2.34315L2.41409 8L8.07095 13.6569C8.46147 14.0474 8.46147 14.6805 8.07095 15.0711C7.68042 15.4616 7.04726 15.4616 6.65673 15.0711L0.29277 8.70711ZM36.0142 9H0.999878V7H36.0142V9Z"/>
</symbol><symbol id="telegram-logo" viewBox="0 0 21 18"><g fill="none">
<path d="M18.6651 0.71682L0.935095 7.55382C-0.274905 8.03982 -0.267905 8.71482 0.713095 9.01582L5.26509 10.4358L15.7971 3.79082C16.2951 3.48782 16.7501 3.65082 16.3761 3.98282L7.84309 11.6838H7.84109L7.84309 11.6848L7.52909 16.3768C7.98909 16.3768 8.19209 16.1658 8.45009 15.9168L10.6611 13.7668L15.2601 17.1638C16.1081 17.6308 16.7171 17.3908 16.9281 16.3788L19.9471 2.15082C20.2561 0.91182 19.4741 0.35082 18.6651 0.71682Z" fill="black"/>
</g></symbol><symbol id="vk-logo" viewBox="0 0 20 21"><g fill="none">
<path d="M3.9206 0.500977C1.76502 0.500977 0.0012207 2.26478 0.0012207 4.42036V16.5841C0.0012207 18.7397 1.76502 20.5035 3.9206 20.5035H16.0844C18.2399 20.5035 20.0037 18.7397 20.0037 16.5841V4.42036C20.0037 2.26478 18.2399 0.500977 16.0844 0.500977H3.9206ZM6.16436 5.0141H10.11C10.9294 5.0141 11.5519 5.04408 11.9744 5.10848C12.3969 5.16966 12.7937 5.3008 13.1625 5.50036C13.5615 5.71534 13.8613 6.00484 14.0587 6.36348C14.2561 6.72424 14.3562 7.1389 14.3562 7.61036C14.3562 8.15524 14.2203 8.63958 13.9462 9.06474C13.6748 9.4899 13.2983 9.80254 12.8194 10.0047V10.0629C13.5084 10.2092 14.0611 10.5036 14.4756 10.9516C14.8908 11.4002 15.0981 12.004 15.0981 12.7622C15.0981 13.3172 14.9933 13.8068 14.7831 14.2266C14.573 14.6465 14.2916 14.9924 13.9356 15.2691C13.5158 15.599 13.055 15.8319 12.55 15.9729C12.0482 16.1134 11.4108 16.1835 10.635 16.1835H6.16438V5.01412L6.16436 5.0141ZM8.95498 7.0616V9.42536H9.3081C9.787 9.42536 10.1254 9.42044 10.3175 9.41036C10.5096 9.40028 10.7095 9.34882 10.9144 9.2541C11.1368 9.14928 11.2934 9.00374 11.3775 8.8191C11.4621 8.63232 11.5056 8.41664 11.5056 8.17348C11.5056 7.99204 11.4594 7.80728 11.3668 7.61786C11.2748 7.42842 11.1318 7.28996 10.9343 7.20536C10.7502 7.12342 10.5325 7.08022 10.2787 7.07224C10.0254 7.06424 9.64908 7.06162 9.14996 7.06162L8.95498 7.0616ZM8.95498 11.3385V14.1347H9.10624C9.8363 14.1347 10.3405 14.1292 10.6194 14.1191C10.8982 14.109 11.1854 14.0428 11.4744 13.9172C11.7308 13.8071 11.915 13.6457 12.0331 13.4329C12.1507 13.2205 12.2094 12.9797 12.2094 12.711C12.2094 12.3651 12.141 12.0964 12 11.9016C11.8595 11.7047 11.6494 11.5585 11.37 11.4585C11.2008 11.392 10.965 11.3559 10.6681 11.3485C10.3712 11.341 9.97214 11.3385 9.4725 11.3385H8.95498Z" fill="black"/>
</g></symbol><symbol id="whatsapp-logo" viewBox="0 0 21 22"><g fill="none">
<path d="M17.8438 3.6148C16.8887 2.65033 15.7511 1.8856 14.4975 1.36518C13.2438 0.844759 11.8991 0.579055 10.5417 0.583552C4.85425 0.583552 0.218832 5.21897 0.218832 10.9065C0.218832 12.7294 0.697998 14.5002 1.59383 16.0627L0.135498 21.4169L5.60425 19.9794C7.11466 20.8023 8.81258 21.2398 10.5417 21.2398C16.2292 21.2398 20.8647 16.6044 20.8647 10.9169C20.8647 8.15647 19.7917 5.56272 17.8438 3.6148ZM10.5417 19.4898C9.00008 19.4898 7.48966 19.0731 6.16675 18.2919L5.85425 18.1044L2.60425 18.9585L3.46883 15.7919L3.2605 15.469C2.40378 14.1013 1.94896 12.5203 1.948 10.9065C1.948 6.1773 5.80216 2.32314 10.5313 2.32314C12.823 2.32314 14.9792 3.21897 16.5938 4.84397C17.3934 5.63966 18.0271 6.5862 18.458 7.62869C18.889 8.67117 19.1086 9.78885 19.1042 10.9169C19.1251 15.6461 15.2709 19.4898 10.5417 19.4898ZM15.2501 13.0731C14.9897 12.9481 13.7188 12.3231 13.4897 12.2294C13.2501 12.1461 13.0834 12.1044 12.9063 12.3544C12.7292 12.6148 12.2397 13.1981 12.0938 13.3648C11.948 13.5419 11.7917 13.5627 11.5313 13.4273C11.2709 13.3023 10.4376 13.0211 9.45841 12.1461C8.68758 11.4586 8.17716 10.6148 8.02091 10.3544C7.87508 10.094 8.00008 9.95855 8.1355 9.82314C8.25008 9.70855 8.39592 9.52105 8.52092 9.37522C8.64592 9.22939 8.698 9.1148 8.78133 8.94814C8.86467 8.77105 8.823 8.62522 8.7605 8.50022C8.698 8.37522 8.17716 7.10439 7.96883 6.58355C7.7605 6.08355 7.54175 6.14605 7.3855 6.13564H6.8855C6.70841 6.13564 6.43758 6.19814 6.198 6.45855C5.96883 6.71897 5.30216 7.34397 5.30216 8.6148C5.30216 9.88564 6.22925 11.1148 6.35425 11.2815C6.47925 11.4586 8.17716 14.0627 10.7605 15.1773C11.3751 15.4481 11.8542 15.6044 12.2292 15.719C12.8438 15.9169 13.4063 15.8856 13.8542 15.8231C14.3542 15.7502 15.3855 15.1981 15.5938 14.594C15.8126 13.9898 15.8126 13.4794 15.7397 13.3648C15.6667 13.2502 15.5105 13.1981 15.2501 13.0731Z" fill="black"/>
</g></symbol></svg>