<svg width="25" height="25" viewBox="0 0 25 25" fill="none" xmlns="http://www.w3.org/2000/svg">
<path d="M10.9375 12.9609L8.91406 10.9375L7.8125 12.0391L10.9375 15.1641L17.1875 8.91406L16.0859 7.8125L10.9375 12.9609Z" fill="white"/>
<path d="M12.5 23.4375L7.67501 20.8648C6.29937 20.1332 5.14899 19.0407 4.34738 17.7046C3.54576 16.3685 3.12318 14.8394 3.12501 13.2812V3.125C3.12501 2.7106 3.28963 2.31317 3.58265 2.02015C3.87568 1.72712 4.27311 1.5625 4.68751 1.5625H20.3125C20.7269 1.5625 21.1243 1.72712 21.4174 2.02015C21.7104 2.31317 21.875 2.7106 21.875 3.125V13.2812C21.8768 14.8394 21.4543 16.3685 20.6526 17.7046C19.851 19.0407 18.7006 20.1332 17.325 20.8648L12.5 23.4375ZM4.68751 3.125V13.2812C4.68664 14.556 5.03272 15.807 5.68866 16.9C6.3446 17.9931 7.28566 18.887 8.41094 19.4859L12.5 21.6664L16.5891 19.4867C17.7145 18.8877 18.6556 17.9937 19.3116 16.9005C19.9675 15.8073 20.3135 14.5561 20.3125 13.2812V3.125H4.68751Z" fill="white"/>
</svg>
