<svg width="30" height="30" viewBox="0 0 30 30" fill="none" xmlns="http://www.w3.org/2000/svg">
<path d="M17.9284 17.5086L19.2587 17.6483V28.4766L15.5842 24.5528V18.3105L16.6514 18.8317L17.9284 17.5086ZM12.0719 17.5086L10.7409 17.6483V28.4766L14.4154 24.5528V18.3105L13.3482 18.8317L12.0719 17.5086ZM22.1489 10.7246L22.5794 12.2231L21.2871 13.0944L21.1789 14.6513L19.6666 15.0278L19.0336 16.4524L17.4832 16.2887L16.4007 17.407L15.0002 16.7228L13.5996 17.407L12.5171 16.285L10.9667 16.4487L10.3338 15.0241L8.82145 14.6513L8.71322 13.0966L7.41725 12.2224L7.84779 10.7239L6.93408 9.4616L7.85072 8.20066L7.41725 6.70518L8.71029 5.83389L8.81852 4.2791L10.3338 3.90633L10.9667 2.48174L12.5171 2.64545L13.5996 1.52344L15.0002 2.20764L16.4007 1.52344L17.4832 2.64545L19.0336 2.48174L19.6666 3.90633L21.1789 4.28279L21.2871 5.83752L22.5794 6.70881L22.1489 8.20728L23.0662 9.4616L22.1489 10.7246ZM19.2653 9.4616C19.2653 8.62441 19.017 7.80601 18.5519 7.10991C18.0868 6.41381 17.4257 5.87126 16.6522 5.55088C15.8787 5.2305 15.0276 5.14668 14.2065 5.31001C13.3854 5.47333 12.6312 5.87648 12.0392 6.46847C11.4472 7.06045 11.0441 7.81469 10.8807 8.6358C10.7174 9.45691 10.8012 10.308 11.1216 11.0815C11.442 11.8549 11.9845 12.516 12.6806 12.9812C13.3767 13.4463 14.1951 13.6945 15.0323 13.6945C16.1544 13.6928 17.2301 13.2463 18.0235 12.4528C18.817 11.6594 19.2635 10.5837 19.2653 9.4616ZM15.0323 6.39814C14.4264 6.39814 13.8342 6.57781 13.3304 6.91442C12.8266 7.25102 12.434 7.72946 12.2021 8.28922C11.9703 8.84898 11.9096 9.46492 12.0278 10.0592C12.146 10.6534 12.4377 11.1992 12.8662 11.6277C13.2946 12.0561 13.8404 12.3479 14.4346 12.4661C15.0289 12.5843 15.6448 12.5236 16.2046 12.2918C16.7644 12.0599 17.2428 11.6673 17.5794 11.1635C17.916 10.6598 18.0957 10.0675 18.0957 9.4616C18.0934 8.65005 17.7698 7.87244 17.1958 7.29878C16.6217 6.72513 15.8439 6.40212 15.0323 6.40037V6.39814Z" fill="white"/>
</svg>
