<svg width="25" height="25" viewBox="0 0 25 25" fill="none" xmlns="http://www.w3.org/2000/svg">
<path d="M12.5 0.833305L12.8733 0.0883054C12.7575 0.0302363 12.6296 0 12.5 0C12.3704 0 12.2425 0.0302363 12.1267 0.0883054L12.5 0.833305ZM7.5 14.1666V13.3333H6.66667V14.1666H7.5ZM14.1667 14.1666H15V13.3333H14.1667V14.1666ZM0 25H25V23.3333H0V25ZM12.1267 0.0883054L2.12667 5.0883L2.87333 6.5783L12.8733 1.57831L12.1267 0.0883054ZM0 9.99997H25V8.3333H0V9.99997ZM22.8733 5.0883L12.8733 0.0883054L12.1267 1.57831L22.1267 6.5783L22.8733 5.0883ZM1.66667 9.16664V24.1666H3.33333V9.16664H1.66667ZM21.6667 9.16664V24.1666H23.3333V9.16664H21.6667ZM8.33333 24.1666V14.1666H6.66667V24.1666H8.33333ZM7.5 15H14.1667V13.3333H7.5V15ZM13.3333 14.1666V24.1666H15V14.1666H13.3333Z" fill="white"/>
</svg>
