<svg width="123" height="106" viewBox="0 0 123 106" fill="none" xmlns="http://www.w3.org/2000/svg">
<path d="M17.9516 8.75765L17.951 8.75856L3.96582 33.0283C2.80309 35.0468 2.3422 37.3149 2.62208 39.548C2.90214 41.7825 3.91626 43.917 5.56927 45.6698L5.56963 45.6702L59.1846 102.549L17.9516 8.75765ZM17.9516 8.75765C19.0187 6.90356 20.6424 5.32341 22.6692 4.21011M17.9516 8.75765L22.6692 4.21011M105.056 8.75856L105.055 8.75765C103.988 6.90356 102.364 5.32341 100.338 4.21011C98.3099 3.09637 95.9692 2.50024 93.5717 2.5L105.056 8.75856ZM105.056 8.75856L119.041 33.0286L119.041 33.0289M105.056 8.75856L119.041 33.0289M119.041 33.0289C120.205 35.047 120.667 37.3149 120.388 39.5479M119.041 33.0289L120.388 39.5479M22.6692 4.21011C24.6968 3.09637 27.0375 2.50024 29.435 2.5L22.6692 4.21011ZM120.388 39.5479C120.109 41.7823 119.096 43.917 117.444 45.6702M120.388 39.5479L117.444 45.6702M117.444 45.6702C117.444 45.6702 117.444 45.6703 117.443 45.6704M117.444 45.6702L117.443 45.6704M117.443 45.6704L63.8287 102.549L117.443 45.6704ZM62.8154 103.239C63.2185 103.071 63.5613 102.832 63.8276 102.55L62.8154 103.239ZM62.8154 103.239C62.4115 103.407 61.9644 103.497 61.5067 103.497M62.8154 103.239L61.5067 103.497M61.5067 103.497C61.0489 103.497 60.6018 103.407 60.1979 103.239M61.5067 103.497L60.1979 103.239M60.1979 103.239C59.7948 103.071 59.452 102.832 59.1858 102.55L60.1979 103.239ZM27.5077 7.75027L24.7948 8.45515L26.3438 10.7912L40.1768 31.6532L41.8435 34.1669L43.5104 31.6534L57.4693 10.6054L59.5288 7.5H55.8025H29.435V7.49996L29.4223 7.50004C28.7761 7.50414 28.1322 7.58802 27.5077 7.75027ZM48.9615 33.6728L46.9028 36.778H50.6284H72.3783H76.1051L74.0449 33.6724L63.1666 17.2744L61.4995 14.7613L59.8331 17.2748L48.9615 33.6728ZM84.8797 41.778H83.431L82.9794 43.1544L70.1467 82.2624L73.5024 84.2578L110.364 45.1498L113.542 41.778H108.909H84.8797ZM49.5043 84.2578L52.8601 82.2627L40.0341 43.1547L39.5825 41.778H38.1337H14.0982H9.46465L12.6428 45.1498L49.5043 84.2578ZM48.4952 41.778H45.7337L46.5949 44.4017L59.6064 84.0437L61.5071 89.8347L63.407 84.0434L76.4119 44.4014L77.2725 41.778H74.5115H48.4952ZM103.029 16.6796L101.416 13.8792L99.6297 16.5725L88.2877 33.6725L86.2279 36.778H89.9544H111.148H114.608L112.881 33.7796L103.029 16.6796ZM93.5754 7.5H93.565H67.1975H63.4713L65.5308 10.6054L79.4896 31.6534L81.1562 34.1663L82.823 31.6536L96.6627 10.7916L98.2126 8.45525L95.4989 7.75026C94.8716 7.58727 94.2246 7.5034 93.5754 7.5ZM33.0523 36.778H36.7788L34.719 33.6725L23.377 16.5725L21.5906 13.8792L19.9773 16.6796L10.1259 33.7796L8.39854 36.778H11.8589H33.0523ZM29.4352 2.5H93.5715H29.4352Z" stroke="white" stroke-width="4"/>
</svg>
