<svg width="21" height="22" viewBox="0 0 21 22" fill="none" xmlns="http://www.w3.org/2000/svg">
<path d="M17.8438 3.6148C16.8887 2.65033 15.7511 1.8856 14.4975 1.36518C13.2438 0.844759 11.8991 0.579055 10.5417 0.583552C4.85425 0.583552 0.218832 5.21897 0.218832 10.9065C0.218832 12.7294 0.697998 14.5002 1.59383 16.0627L0.135498 21.4169L5.60425 19.9794C7.11466 20.8023 8.81258 21.2398 10.5417 21.2398C16.2292 21.2398 20.8647 16.6044 20.8647 10.9169C20.8647 8.15647 19.7917 5.56272 17.8438 3.6148ZM10.5417 19.4898C9.00008 19.4898 7.48966 19.0731 6.16675 18.2919L5.85425 18.1044L2.60425 18.9585L3.46883 15.7919L3.2605 15.469C2.40378 14.1013 1.94896 12.5203 1.948 10.9065C1.948 6.1773 5.80216 2.32314 10.5313 2.32314C12.823 2.32314 14.9792 3.21897 16.5938 4.84397C17.3934 5.63966 18.0271 6.5862 18.458 7.62869C18.889 8.67117 19.1086 9.78885 19.1042 10.9169C19.1251 15.6461 15.2709 19.4898 10.5417 19.4898ZM15.2501 13.0731C14.9897 12.9481 13.7188 12.3231 13.4897 12.2294C13.2501 12.1461 13.0834 12.1044 12.9063 12.3544C12.7292 12.6148 12.2397 13.1981 12.0938 13.3648C11.948 13.5419 11.7917 13.5627 11.5313 13.4273C11.2709 13.3023 10.4376 13.0211 9.45841 12.1461C8.68758 11.4586 8.17716 10.6148 8.02091 10.3544C7.87508 10.094 8.00008 9.95855 8.1355 9.82314C8.25008 9.70855 8.39592 9.52105 8.52092 9.37522C8.64592 9.22939 8.698 9.1148 8.78133 8.94814C8.86467 8.77105 8.823 8.62522 8.7605 8.50022C8.698 8.37522 8.17716 7.10439 7.96883 6.58355C7.7605 6.08355 7.54175 6.14605 7.3855 6.13564H6.8855C6.70841 6.13564 6.43758 6.19814 6.198 6.45855C5.96883 6.71897 5.30216 7.34397 5.30216 8.6148C5.30216 9.88564 6.22925 11.1148 6.35425 11.2815C6.47925 11.4586 8.17716 14.0627 10.7605 15.1773C11.3751 15.4481 11.8542 15.6044 12.2292 15.719C12.8438 15.9169 13.4063 15.8856 13.8542 15.8231C14.3542 15.7502 15.3855 15.1981 15.5938 14.594C15.8126 13.9898 15.8126 13.4794 15.7397 13.3648C15.6667 13.2502 15.5105 13.1981 15.2501 13.0731Z" fill="black"/>
</svg>
